<svg width="500" height="70" viewBox="0 0 500 70" fill="none" xmlns="http://www.w3.org/2000/svg">
<path d="M490.53 29.3084L489.539 30.4342C489.539 30.4342 489.539 30.4343 489.539 30.4344C491.349 32.0283 493.519 33.3269 495.999 33.9973L496.003 33.9984L483.48 18.4453C485.04 22.3964 487.2 26.3775 490.53 29.3084ZM490.53 29.3084C492.2 30.7788 494.17 31.9491 496.39 32.5493C496.516 32.583 496.651 32.6171 496.792 32.6527C498.121 32.9883 500 33.4629 500 35C500 36.5344 498.127 37.01 496.806 37.3455C496.663 37.3818 496.527 37.4165 496.4 37.4507C494.18 38.0509 492.2 39.2212 490.54 40.6916M490.53 29.3084L3.6 32.5493M3.6 32.5493C3.47304 32.5835 3.33653 32.6182 3.19357 32.6545C1.87268 32.99 0 33.4656 0 35C0 36.5371 1.87915 37.0117 3.20778 37.3473C3.34905 37.3829 3.4841 37.4171 3.61 37.4507C5.83 38.0509 7.8 39.2212 9.47 40.6916C12.8 43.6325 14.96 47.6036 16.52 51.5547C19.68 59.567 26.12 64.3984 31.15 67.0992M3.6 32.5493C5.82 31.9491 7.8 30.7788 9.46 29.3084L3.6 32.5493ZM31.15 67.0992C34.77 69.0397 38.92 70 43.1 70H456.91C461.1 70 465.24 69.0397 468.86 67.0992M31.15 67.0992L31.8596 65.7776C31.8593 65.7775 31.859 65.7773 31.8587 65.7771M31.15 67.0992L31.8587 65.7771M468.86 67.0992C473.89 64.3984 480.33 59.567 483.49 51.5547C485.05 47.6036 487.21 43.6225 490.54 40.6916M468.86 67.0992L468.151 65.7771C468.151 65.7773 468.151 65.7775 468.15 65.7776M468.86 67.0992L468.15 65.7776M490.54 40.6916L489.549 39.5656C489.549 39.566 489.548 39.5664 489.548 39.5668M490.54 40.6916L489.545 39.5688C489.546 39.5681 489.547 39.5675 489.548 39.5668M489.548 39.5668C485.962 42.7231 483.694 46.9547 482.095 51.0039L482.095 51.0044C479.118 58.5529 473.023 63.1611 468.15 65.7776M489.548 39.5668L10.4528 30.4328M468.15 65.7776C464.767 67.591 460.875 68.5 456.91 68.5H43.1C39.1448 68.5 35.2418 67.5907 31.8587 65.7771M31.8587 65.7771C26.9858 63.1606 20.8923 58.5524 17.9154 51.0044L17.9152 51.0039C16.3155 46.9523 14.0467 42.7323 10.4629 39.5673L10.4613 39.5658C8.65094 37.9719 6.48153 36.6732 4.00147 36.0027L3.99729 36.0016C3.82715 35.9561 3.66186 35.9141 3.50149 35.8733C2.925 35.7266 2.41204 35.5961 1.96545 35.3807C1.70353 35.2544 1.57998 35.1479 1.53017 35.0884C1.50519 35.0586 1.5 35.0508 1.5 35C1.5 34.9492 1.50522 34.9412 1.53032 34.9112C1.58021 34.8516 1.70367 34.7452 1.96509 34.6189C2.40892 34.4044 2.91627 34.2747 3.48649 34.1288C3.64923 34.0872 3.8171 34.0443 3.99007 33.9977L3.99147 33.9973C6.46846 33.3277 8.64866 32.0305 10.4528 30.4328M10.4528 30.4328C14.038 27.2767 16.3065 23.0452 17.9052 18.9961L17.9054 18.9956C20.8824 11.4473 26.9762 6.8391 31.8492 4.22257L10.4528 30.4328ZM456.9 1.5C460.855 1.5 464.758 2.40915 468.14 4.22238H31.8496C35.2327 2.40902 39.1255 1.5 43.09 1.5H456.9Z" fill="url(#paint0_linear_1_3)" stroke="url(#paint1_linear_1_3)" stroke-width="3" stroke-miterlimit="10" stroke-linejoin="bevel"/>
<path d="M447.525 59H52.4752C37.3002 59 25 47.8079 25 34C25 20.1921 37.3002 9 52.4752 9H447.525C462.7 9 475 20.1921 475 34C475 47.8079 462.7 59 447.525 59Z" fill="url(#paint2_radial_1_3)"/>
<defs>
<linearGradient id="paint0_linear_1_3" x1="250" y1="0" x2="250" y2="70" gradientUnits="userSpaceOnUse">
<stop offset="0.156274" stop-color="#516C7C"/>
<stop offset="1" stop-color="#051826"/>
</linearGradient>
<linearGradient id="paint1_linear_1_3" x1="250" y1="0" x2="250" y2="70" gradientUnits="userSpaceOnUse">
<stop stop-color="#C0D3DE"/>
<stop offset="1" stop-color="#516C7C"/>
</linearGradient>
<radialGradient id="paint2_radial_1_3" cx="0" cy="0" r="1" gradientUnits="userSpaceOnUse" gradientTransform="translate(250 34) scale(213.852 1511.82)">
<stop offset="0.178152" stop-color="#111212"/>
<stop offset="0.998964" stop-color="#08253A" stop-opacity="0.97"/>
</radialGradient>
</defs>
</svg>
